:SAMPLES-PER-SECOND 30
:FULLY-SPECIFIED
:DEGREES
32
root  -51.7125 18.6243 3.24404 67.6624 81.0704 33.8078
RightUpLeg  -0.377508 11.8487 6.20174
RightLeg  72.001 9.71978 -3.43913
RightFoot  -13.67 -0.0397763 -7.66043
RightToes  -4.65663e-010 -1.59028e-015 9.93923e-017
Spine  49.3497 0.584802 -3.28643
Spine1  -0.00234591 2.60387 -22.4407
HEad  -63.8417 -1.41811 18.9926
LeftShoulder1  9.93923e-017 0 1.22299e-017
LeftArm  25.988 -28.6804 -80.1818
LeftForeArm  2.68339 -31.9466 22.5262
LeftHand  -2.51944 -0.241526 35.0432
RightShoulder  1.98785e-016 -4.96962e-017 1.55301e-017
RightArm  -11.2243 34.3878 89.3133
RightForeArm  11.132 -1.01873 -3.95319
RightHand  8.6929 -21.2673 -45.5421
LeftUpLeg  -58.3552 -4.1214 2.51102
LeftLeg  125.159 -7.80389 -9.19178
LeftFoot  6.57568 -0.323558 1.93802
LeftToes  3.34876e-009 -9.68256e-011 -6.12847e-011
33
root  -50.857 18.3585 3.00273 84.0678 81.0743 48.0744
RightUpLeg  -0.330152 9.34574 4.5241
RightLeg  68.8402 9.4016 -3.61294
RightFoot  -12.0285 0.082344 -8.79345
RightToes  -4.65663e-010 -1.59028e-015 9.93923e-017
Spine  46.6443 0.290865 -5.2467
Spine1  0.965437 0.830709 -17.9856
HEad  -63.5245 -0.243204 17.4726
LeftShoulder1  9.93923e-017 0 1.22299e-017
LeftArm  24.9538 -35.7733 -80.2173
LeftForeArm  1.58256 -31.327 22.1791
LeftHand  -2.4416 -0.111616 34.8407
RightShoulder  1.98785e-016 -4.96962e-017 1.55301e-017
RightArm  -11.8031 32.6474 91.3625
RightForeArm  15.0451 0.13664 -3.5454
RightHand  8.9832 -21.4364 -46.6771
LeftUpLeg  -58.6471 -6.04092 0.433447
LeftLeg  124.149 -8.63216 -8.27947
LeftFoot  8.23976 -0.280479 1.60106
LeftToes  3.34876e-009 -9.68256e-011 -6.12847e-011
34
root  -49.9661 18.1609 2.80219 102.359 79.8863 63.6524
RightUpLeg  -0.844388 5.90945 2.05531
RightLeg  65.4915 9.39775 -2.88051
RightFoot  -9.99661 0.27095 -9.92961
RightToes  -4.65663e-010 -1.59028e-015 9.93923e-017
Spine  44.2519 0.63133 -8.69497
Spine1  1.06172 -1.34909 -11.3922
HEad  -62.8935 0.98951 15.8587
LeftShoulder1  9.93923e-017 0 1.22299e-017
LeftArm  25.3497 -43.3174 -81.1886
LeftForeArm  -0.329875 -28.0571 20.8877
LeftHand  -2.28718 0.0527747 33.8235
RightShoulder  1.98785e-016 -4.96962e-017 1.55301e-017
RightArm  -12.2806 30.9291 92.5777
RightForeArm  18.023 1.11608 -2.68709
RightHand  9.14257 -21.5752 -47.132
LeftUpLeg  -59.0905 -8.38236 -2.02493
LeftLeg  123.128 -9.22141 -7.63809
LeftFoot  8.21303 -0.0452116 0.357859
LeftToes  3.34876e-009 -9.68256e-011 -6.12847e-011
35
root  -49.058 18.0761 2.59077 113.95 78.4741 72.7791
RightUpLeg  -1.27289 2.70193 -0.314933
RightLeg  62.2548 9.72282 -1.64494
RightFoot  -7.62901 0.481605 -10.0482
RightToes  -4.65663e-010 -1.59028e-015 9.93923e-017
Spine  43.7994 1.12338 -12.3063
Spine1  -1.94672 -3.63688 -4.38314
HEad  -61.2829 2.60131 13.886
LeftShoulder1  9.93923e-017 0 1.22299e-017
LeftArm  21.8402 -50.3708 -81.9757
LeftForeArm  2.77998 -22.8143 16.0147
LeftHand  -2.05566 0.241622 31.824
RightShoulder  1.98785e-016 -4.96962e-017 1.55301e-017
RightArm  -11.987 28.489 94.1051
RightForeArm  20.1583 1.7032 -1.56542
RightHand  9.28084 -21.8018 -47.174
LeftUpLeg  -58.8402 -10.4037 -3.88785
LeftLeg  121.124 -9.73174 -7.24208
LeftFoot  8.25764 0.134007 -0.573449
LeftToes  3.34876e-009 -9.68256e-011 -6.12847e-011
36
root  -48.2267 18.1261 2.29041 121.564 77.5027 78.6871
RightUpLeg  -1.56493 0.323177 -2.01425
RightLeg  59.8123 10.4513 -0.00173118
RightFoot  -4.19211 0.743343 -9.50777
RightToes  -4.65663e-010 -1.59028e-015 9.93923e-017
Spine  46.0956 0.937929 -14.8008
Spine1  -8.59821 -5.97315 2.0592
HEad  -58.6637 5.09678 11.4232
LeftShoulder1  9.93923e-017 0 1.22299e-017
LeftArm  9.31775 -55.4847 -79.7381
LeftForeArm  12.9623 -15.8886 9.24187
LeftHand  -1.83646 0.430261 29.8868
RightShoulder  1.98785e-016 -4.96962e-017 1.55301e-017
RightArm  -10.7493 24.1899 96.4752
RightForeArm  22.5138 2.003 -0.645897
RightHand  9.44112 -21.9956 -47.4387
LeftUpLeg  -58.0061 -12.6864 -4.97374
LeftLeg  118.808 -9.8268 -7.56717
LeftFoot  8.45054 0.173263 -0.769511
LeftToes  3.34876e-009 -9.68256e-011 -6.12847e-011
37
root  -47.5293 18.2923 1.90601 125.995 77.7426 81.5115
RightUpLeg  -3.0151 -0.321863 -2.59536
RightLeg  58.9543 11.6548 2.23006
RightFoot  1.09288 1.09709 -8.75939
RightToes  -4.65663e-010 -1.59028e-015 9.93923e-017
Spine  48.1931 0.65821 -16.0589
Spine1  -14.2834 -7.20264 7.33237
HEad  -57.1079 7.85918 8.99956
LeftShoulder1  9.93923e-017 0 1.22299e-017
LeftArm  3.47293 -59.3285 -76.0859
LeftForeArm  14.6409 -9.11581 6.69387
LeftHand  -1.5642 0.730134 27.6942
RightShoulder  1.98785e-016 -4.96962e-017 1.55301e-017
RightArm  -9.04975 20.8252 99.0288
RightForeArm  24.9293 1.80956 -0.174363
RightHand  9.57835 -22.0596 -47.9862
LeftUpLeg  -57.5099 -14.351 -5.18851
LeftLeg  116.879 -9.76473 -8.13714
LeftFoot  8.01612 0.181033 -0.833644
LeftToes  3.34876e-009 -9.68256e-011 -6.12847e-011
